<?xml version="1.0" standalone="no"?>
<!DOCTYPE svg PUBLIC "-//W3C//DTD SVG 20010904//EN"
 "http://www.w3.org/TR/2001/REC-SVG-20010904/DTD/svg10.dtd">
<svg version="1.0" xmlns="http://www.w3.org/2000/svg"
 width="2000.000000pt" height="2000.000000pt" viewBox="0 0 2000.000000 2000.000000"
 preserveAspectRatio="xMidYMid meet">

<g transform="translate(0.000000,2000.000000) scale(0.100000,-0.100000)"
fill="#000000" stroke="none">
<path d="M5135 14858 c-3 -7 -4 -2198 -3 -4868 l3 -4855 4865 0 4865 0 0 4865
0 4865 -4863 3 c-3885 2 -4864 0 -4867 -10z m1541 -653 c28 -8 67 -29 87 -47
24 -22 221 -335 574 -913 295 -484 549 -905 565 -935 40 -81 61 -173 61 -275
0 -177 -60 -323 -182 -446 -71 -71 -134 -111 -949 -608 -480 -293 -885 -538
-901 -544 -38 -14 -96 7 -125 46 l-21 28 0 1507 0 1507 23 85 c71 269 265 478
522 564 131 43 264 56 346 31z m5664 -3 c47 -23 76 -82 63 -126 -12 -38 -1847
-3047 -1904 -3122 -77 -100 -231 -196 -357 -223 -68 -14 -216 -14 -284 0 -124
26 -281 124 -355 221 -58 76 -1894 3085 -1906 3124 -13 44 16 103 63 126 33
17 166 18 2340 18 2174 0 2307 -1 2340 -18z m1277 -13 c279 -71 499 -292 575
-579 l23 -85 0 -1507 0 -1507 -21 -28 c-29 -39 -87 -60 -125 -46 -16 6 -421
251 -901 544 -828 504 -877 536 -949 609 -123 125 -182 268 -182 445 0 102 21
194 61 275 16 30 270 451 565 935 355 580 550 891 574 913 54 48 111 63 215
57 48 -3 122 -15 165 -26z m-5082 -3197 c94 -31 206 -103 268 -172 57 -63 654
-1041 718 -1175 87 -183 131 -349 149 -562 15 -182 12 -3179 -3 -3222 -7 -19
-25 -44 -40 -55 l-28 -21 -1562 0 -1562 0 -85 23 c-287 76 -500 288 -582 577
l-23 80 -3 1425 c-2 955 1 1448 8 1495 14 95 65 197 132 262 40 39 312 210
1088 684 604 369 1061 642 1099 656 132 50 285 52 426 5z m3307 12 c29 -9 78
-28 108 -44 30 -15 510 -305 1065 -644 756 -462 1023 -630 1063 -669 67 -65
118 -167 132 -262 7 -47 10 -540 8 -1495 l-3 -1425 -23 -80 c-81 -287 -290
-496 -577 -577 l-80 -23 -1555 -3 c-1469 -2 -1557 -1 -1590 15 -20 10 -43 33
-52 53 -17 33 -18 129 -18 1575 0 915 4 1588 10 1658 18 213 62 379 149 562
63 132 657 1105 716 1172 85 97 242 182 374 203 72 11 206 3 273 -16z"/>
</g>
</svg>
